<?xml version="1.0" encoding="UTF-8" standalone="no"?>
<!-- Generator: Adobe Illustrator 16.0.3, SVG Export Plug-In . SVG Version: 6.00 Build 0)  -->

<svg
   version="1.1"
   id="Capa_1"
   x="0px"
   y="0px"
   width="1939.6067"
   height="1080"
   viewBox="0 0 1939.6066 1080"
   enable-background="new 0 0 595.28 841.89"
   xml:space="preserve"
   sodipodi:docname="Logo UAM Azcapotzalco.svg"
   inkscape:version="1.1 (c68e22c387, 2021-05-23)"
   xmlns:inkscape="http://www.inkscape.org/namespaces/inkscape"
   xmlns:sodipodi="http://sodipodi.sourceforge.net/DTD/sodipodi-0.dtd"
   xmlns="http://www.w3.org/2000/svg"
   xmlns:svg="http://www.w3.org/2000/svg"><defs
   id="defs55" /><sodipodi:namedview
   id="namedview53"
   pagecolor="#ffffff"
   bordercolor="#666666"
   borderopacity="1.0"
   inkscape:pageshadow="2"
   inkscape:pageopacity="0.0"
   inkscape:pagecheckerboard="0"
   showgrid="false"
   fit-margin-top="0"
   fit-margin-left="0"
   fit-margin-right="0"
   fit-margin-bottom="0"
   inkscape:zoom="0.24706315"
   inkscape:cx="847.96134"
   inkscape:cy="904.62701"
   inkscape:window-width="1920"
   inkscape:window-height="1017"
   inkscape:window-x="1912"
   inkscape:window-y="-8"
   inkscape:window-maximized="1"
   inkscape:current-layer="Capa_1" />
<g
   id="g50"
   transform="matrix(6.1593999,0,0,6.1593999,-860.12037,-2069.9354)">
	<g
   id="g48">
		
		<path
   id="path4"
   d="m 317.75391,336.11133 c -14.959,-0.053 -29.91896,-0.0854 -44.87696,0.0156 -8.6,0.058 -15.03439,4.15716 -19.65039,11.28516 -0.284,0.437 -0.5107,0.91167 -0.8457,1.51367 -1.826,-3.894 -3.58297,-7.60108 -5.29297,-11.33008 -0.329,-0.719 -0.75183,-1.00295 -1.54883,-1.00195 -12.318,0.02 -24.63608,0.018 -36.95508,0 -0.792,-10e-4 -1.22678,0.28577 -1.55078,1.00977 -5.839,13.025 -11.70068,26.03959 -17.55468,39.05859 -6.526,14.514 -13.04732,29.02701 -19.57032,43.54101 -3.858,8.58401 -7.71417,17.17091 -11.57617,25.75391 -0.322,0.716 -0.683,1.38381 0.625,1.38281 12.438,-0.005 24.87841,-0.002 37.31641,0.0156 0.736,0.001 1.17717,-0.23827 1.45117,-0.94727 0.417,-1.076 0.92053,-2.11887 1.39453,-3.17187 8.638,-19.196 17.27602,-38.39094 25.91602,-57.58594 0.736,-1.636 1.48221,-3.26614 2.32422,-5.11914 1.782,3.866 3.442,7.4867 5.125,11.0957 0.185,0.396 0.0425,0.67782 -0.10352,1.00782 -2.055,4.629 -4.10625,9.25962 -6.15625,13.89062 -5.779,13.055 -11.56099,26.10997 -17.33399,39.16797 -0.66299,1.498 -0.55679,1.65234 1.03321,1.65234 11.839,0.004 23.67662,-0.005 35.51562,0.0195 0.891,0.002 1.36085,-0.28423 1.71485,-1.11523 1.173,-2.748 2.42525,-5.46255 3.65625,-8.18555 0.495,-1.094 1.01589,-2.18029 1.58789,-3.40429 2.545,4.851 5.9989,8.50189 10.7539,10.83789 3.51,1.724 7.26072,2.40615 11.13672,2.41015 14.479,0.017 28.95655,0.0402 43.43555,-0.008 6.636,-0.021 12.24862,-2.55616 16.89062,-7.28516 1.707,-1.739 3.02197,-3.75932 4.29297,-5.98632 1.796,3.969 3.54752,7.77337 5.22852,11.60937 0.359,0.818 0.79936,1.12905 1.69336,1.12305 5.359,-0.034 10.71912,-0.0127 16.07812,-0.0117 6.72,0.001 13.43821,0.002 20.15821,-0.004 1.297,-0.002 1.4699,-0.22181 1.0039,-1.25781 -3.908,-8.691 -7.82137,-17.38131 -11.73437,-26.07031 -4.109,-9.125 -8.22031,-18.24795 -12.32032,-27.37696 -0.152,-0.341 -0.41803,-0.67004 -0.20703,-1.12304 1.683,-3.595 3.34863,-7.20002 5.01563,-10.79102 0.331,0.087 0.34483,0.30842 0.42383,0.48242 1.299,2.869 2.60548,5.73347 3.89648,8.60547 8.442,18.768 16.88483,37.53446 25.29883,56.31446 0.401,0.898 0.87,1.22956 1.875,1.22656 12.159,-0.031 24.31756,-0.0118 36.47656,-0.008 1.798,0 1.84052,-0.072 1.10352,-1.70899 -8.986,-19.96 -17.97399,-39.9189 -26.95899,-59.8789 -7.22,-16.036 -14.44176,-32.07214 -21.63476,-48.11915 -0.381,-0.84899 -0.91163,-1.04692 -1.76563,-1.04492 -12.2,0.021 -24.39865,0.0231 -36.59765,-0.004 -0.93,-0.002 -1.43708,0.28643 -1.83008,1.14843 -1.685,3.703 -3.44042,7.3745 -5.23242,11.1875 -0.195,-0.339 -0.29349,-0.50959 -0.39649,-0.68359 -4.619,-7.958 -11.51051,-12.09981 -20.72851,-12.13281 z m -21.14258,18.01758 c 3.417,0.143 6.68375,2.16861 8.59375,6.34961 4.126,9.03 8.21419,18.08106 12.49219,27.03906 1.135,2.377 1.30878,4.25761 0.0508,6.72461 -4.4,8.629 -8.51224,17.40678 -12.36524,26.30078 -1.764,4.071 -4.92218,6.35553 -9.36719,6.51953 -4.73399,0.175 -8.05196,-2.139 -10.04296,-6.375 -4.513,-9.602 -8.99663,-19.21936 -13.51563,-28.81836 -0.281,-0.596 -0.29753,-1.04625 -0.0195,-1.65625 4.548,-9.976 9.05661,-19.97217 13.59961,-29.95117 1.799,-3.954 5.20722,-6.12681 10.57422,-6.13281 z" />
		<path
   id="path6"
   d="m 154.59961,471.24609 c -0.36614,0.005 -0.78136,0.0165 -1.25586,0.0312 -0.619,0.02 -0.88214,0.2436 -1.11914,0.8086 -1.973,4.704 -3.98624,9.39203 -5.99023,14.08203 -2.129,4.984 -4.24921,9.97236 -6.40821,14.94336 -0.387,0.892 -0.16781,1.12259 0.74219,1.05859 0.836,-0.06 1.68558,-0.082 2.51758,-0.002 0.851,0.081 1.20451,-0.33292 1.47851,-1.04492 0.744,-1.933 1.56907,-3.83635 2.28907,-5.77735 0.263,-0.709 0.60871,-0.98551 1.38671,-0.97851 4.36,0.034 8.72008,0.0261 13.08008,-0.006 0.721,-0.005 1.08213,0.25611 1.32813,0.91211 0.601,1.602 1.25448,3.18543 1.89648,4.77344 0.853,2.11 0.85619,2.10746 3.11719,2.10546 0.32,0.002 0.63998,0.002 0.95898,0.004 1.628,0.007 1.63496,0.004 1.00196,-1.49219 -3.665,-8.668 -7.33305,-17.333 -10.99805,-26 -1.302,-3.07912 -1.46241,-3.45178 -4.02539,-3.41797 z m 0.1543,4.36133 c 1.656,4.115 3.18498,7.90908 4.70898,11.70508 0.356,0.886 0.68269,1.78506 1.05469,2.66406 0.22,0.52 0.10925,0.7188 -0.46875,0.7168 -3.553,-0.01 -7.10521,-0.003 -10.65821,-0.002 -1.01599,0.001 -0.45912,-0.62018 -0.32812,-0.95118 1.007,-2.556 2.05303,-5.09362 3.08203,-7.64062 0.831,-2.057 1.65538,-4.11619 2.60938,-6.49219 z"
   style="fill:#d21f2a;fill-opacity:1" />
		<path
   id="path8"
   d="m 267.74805,479.12305 c -2.958,-0.005 -5.41903,1.08254 -7.45703,3.43554 -0.34,-1.05 0.32567,-2.28453 -0.36133,-2.76953 -0.625,-0.439 -1.76688,-0.10226 -2.67188,-0.19726 -0.905,-0.095 -1.12604,0.235 -1.12304,1.125 0.034,9.19 0.0234,18.38031 0.0234,27.57031 0.001,3.165 -7.8e-4,3.12928 3.19922,3.11328 0.848,-0.004 0.97675,-0.32483 0.96875,-1.04883 -0.031,-2.756 -0.0137,-5.51348 -0.0137,-8.27148 v -3.0625 c 1.901,2.759 4.41842,3.5559 7.23242,3.6289 3.244,0.085 5.97205,-1.00975 7.74805,-3.84375 2.627,-4.192 2.93901,-8.70721 1.41601,-13.32421 -1.385,-4.201 -4.55693,-6.34747 -8.96093,-6.35547 z m -0.89453,3.38281 c 1.73792,-0.0188 3.46464,0.72236 4.58007,2.20117 1.104,1.461 1.7008,3.54517 1.7168,6.20117 -0.083,1.726 -0.39362,3.6086 -1.39062,5.3086 -2.222,3.789 -6.87597,4.19603 -9.54297,0.70703 -2.969,-3.886 -2.2933,-10.22747 0.8457,-12.98047 1.08019,-0.94763 2.43929,-1.42285 3.79102,-1.4375 z"
   style="fill:#d21f2a;fill-opacity:1" />
		<path
   id="path10"
   d="m 236.32617,479.07812 c -2.36484,-0.0238 -4.66978,0.56749 -6.90234,1.74415 -0.344,0.181 -0.62642,0.37396 -0.60742,0.79296 0.043,0.987 -0.0685,1.99207 0.3125,3.03907 2.145,-1.571 4.50651,-2.25182 7.10351,-2.13282 2.98,0.136 4.68631,1.85585 4.82031,4.83985 0.03,0.646 -0.11084,0.93511 -0.83984,0.91211 -1.516,-0.05 -3.03769,-0.0491 -4.55469,0.006 -2.264,0.082 -4.42537,0.59807 -6.35937,1.83008 -3.869,2.46499 -4.23008,8.18831 -0.70508,10.94531 3.191,2.495 9.26073,2.05472 12.05273,-0.86328 0.229,-0.241 0.37077,-0.62058 0.88477,-0.64258 0,0.656 -0.003,1.28411 0.002,1.91211 0.003,0.323 -0.0119,0.68564 0.45508,0.68164 1.072,-0.01 2.28392,0.25684 3.16992,-0.16016 0.641,-0.303 -0.007,-1.53361 0.0762,-2.34961 0.012,-0.118 -0.006,-0.24037 -0.006,-0.35937 -0.009,-3.876 0.007,-7.75196 -0.0332,-11.62696 -0.043,-4.267 -1.81247,-7.09853 -5.10547,-8.01953 -1.26947,-0.35475 -2.52494,-0.53634 -3.76367,-0.54883 z m 1.64063,12.28907 c 0.459,-0.002 0.91895,0.01 1.37695,0.0195 1.708,0.036 1.70798,0.0493 1.70898,1.73828 0.002,4.651 -4.39604,7.57727 -8.37304,5.57227 -2.552,-1.286 -2.74291,-4.34661 -0.37891,-5.97461 1.295,-0.892 2.78592,-1.15093 4.29492,-1.29493 0.455,-0.043 0.9121,-0.0585 1.3711,-0.0605 z"
   style="fill:#d21f2a;fill-opacity:1" />
		<path
   id="path12"
   d="m 373.14648,479.07031 c -2.2246,0.0482 -4.39648,0.65063 -6.49023,1.78125 -0.29,0.157 -0.57145,0.31032 -0.56445,0.69532 0.02,1.02 -0.0451,2.04885 0.29687,3.13085 1.448,-1.114 3.02052,-1.80534 4.72852,-2.02734 4.24,-0.55 6.59,0.48872 7.125,4.13672 0.216,1.477 0.22248,1.49666 -1.22852,1.47266 -3.196,-0.054 -6.38734,-0.1521 -9.40234,1.2539 -2.861,1.334 -4.326,3.71825 -4.125,6.90625 0.184,2.936 1.89333,5.02731 4.98633,5.82031 3.86,0.989 7.37151,0.42433 10.22851,-2.88867 0.264,1.031 -0.27908,2.11514 0.29492,2.61914 0.612,0.538 1.68874,0.0934 2.55274,0.19336 0.877,0.102 1.20394,-0.13742 1.08594,-1.10742 -0.154,-1.265 -0.14144,-2.55403 -0.14844,-3.83203 -0.019,-3.241 0.0224,-6.47975 -0.0176,-9.71875 -0.052,-4.246 -1.78062,-6.95402 -5.26563,-7.91602 -1.36725,-0.37725 -2.72187,-0.54842 -4.05664,-0.51953 z m 2.11719,12.26758 c 0.85065,-0.004 1.70374,0.0426 2.55274,0.10938 1.052,0.084 0.21272,1.12673 0.51171,1.55273 0.018,3.748 -2.09274,6.01714 -5.71874,6.24414 -2.35701,0.148 -4.25763,-1.10736 -4.64063,-3.06836 -0.347,-1.774 0.86684,-3.46884 3.08984,-4.21484 1.37625,-0.46188 2.78733,-0.61562 4.20508,-0.62305 z"
   style="fill:#d21f2a;fill-opacity:1" />
		<path
   id="path14"
   d="m 443.11914,479.09375 c -0.44404,-5.5e-4 -0.89719,0.0192 -1.35937,0.0605 -6.417,0.574 -10.65218,6.00434 -10.07618,12.90234 0.537,6.431 5.99911,11.1158 12.28711,10.5918 6.83,-0.569 10.8255,-6.17003 10.5625,-12.33203 -0.20812,-6.58594 -4.75339,-11.21446 -11.41406,-11.22266 z m 0.0312,3.35742 c 2.53665,0.025 5.00548,1.6481 6.1543,4.44141 1.248,3.033 1.12753,6.09986 -0.48047,9.00586 -1.218,2.202 -3.14592,3.34242 -5.66992,3.35742 -2.574,0.016 -4.49511,-1.146 -5.78711,-3.375 -0.885,-1.525 -1.20444,-3.18713 -1.27344,-5.07813 0.106,-2.896 0.97983,-5.60746 3.67383,-7.35546 1.06281,-0.69 2.22979,-1.00746 3.38281,-0.9961 z"
   style="fill:#d21f2a;fill-opacity:1" />
		<path
   id="path16"
   d="m 296.9707,479.12695 c -6.858,0.015 -11.47445,4.80219 -11.43945,11.86719 0.032,6.66 4.98534,11.6815 11.52734,11.6875 6.433,0.005 11.37377,-5.1348 11.38477,-11.8418 0.01,-6.923 -4.69666,-11.72789 -11.47266,-11.71289 z m 0.13672,3.35547 c 1.92982,0.0311 3.82113,0.95816 5.05469,2.71485 2.207,3.142 2.40891,6.53218 0.87891,9.99218 -1.278,2.89 -3.60935,4.26464 -6.52735,4.05664 -2.866,-0.204 -5.12958,-2.10529 -6.01758,-5.02929 -0.327,-1.079 -0.55004,-2.16769 -0.49804,-3.30469 0.041,-2.651 0.75712,-5.04075 2.82812,-6.84375 1.25606,-1.09244 2.78029,-1.61012 4.28125,-1.58594 z"
   style="fill:#d21f2a;fill-opacity:1" />
		<path
   fill-rule="evenodd"
   clip-rule="evenodd"
   fill="#D21F2A"
   d="m 181.716,498.488 c 0.458,0.365 0.869,0.232 1.257,0.233 3.639,10e-4 7.278,0.015 10.917,-0.019 0.711,-0.006 0.97,0.176 0.99,0.928 0.066,2.527 0.096,2.527 -2.39,2.527 -4.878,-10e-4 -9.758,-0.041 -14.636,0.026 -1.123,0.015 -1.25,-0.384 -1.306,-1.369 -0.094,-1.665 0.413,-2.917 1.523,-4.19 3.589,-4.114 7.038,-8.353 10.532,-12.55 0.22,-0.265 0.531,-0.491 0.56,-1.061 -0.943,0 -1.877,0 -2.812,0 -2.719,-10e-4 -5.439,-0.032 -8.158,0.019 -0.798,0.015 -0.999,-0.229 -0.997,-1.002 0.004,-2.416 -0.028,-2.419 2.325,-2.42 4.599,-0.003 9.197,0.013 13.796,-0.018 0.748,-0.005 0.988,0.172 1.038,0.977 0.111,1.795 -0.316,3.217 -1.57,4.642 -3.66,4.159 -7.128,8.485 -10.671,12.748 -0.125,0.151 -0.236,0.313 -0.398,0.529 z"
   id="path18"
   style="fill:#d21f2a;fill-opacity:1" />
		<path
   fill-rule="evenodd"
   clip-rule="evenodd"
   fill="#D21F2A"
   d="m 350.163,483.012 c -3.828,0 -7.418,-0.036 -11.006,0.023 -0.959,0.016 -1.198,-0.258 -1.169,-1.194 0.071,-2.224 0.021,-2.229 2.263,-2.229 4.598,-0.003 9.195,0.017 13.793,-0.021 0.803,-0.007 1.045,0.168 1.124,1.026 0.172,1.878 -0.428,3.293 -1.68,4.72 -3.575,4.076 -6.99,8.292 -10.457,12.463 -0.188,0.227 -0.488,0.418 -0.478,0.917 1.634,0 3.26,0.001 4.885,0 2.399,0 4.799,0.025 7.196,-0.019 0.709,-0.013 0.973,0.134 0.982,0.906 0.034,2.549 0.068,2.552 -2.458,2.553 -4.798,0.002 -9.596,-0.023 -14.394,0.021 -1.032,0.009 -1.424,-0.186 -1.449,-1.36 -0.036,-1.663 0.441,-2.916 1.544,-4.185 3.609,-4.15 7.083,-8.419 10.605,-12.646 0.201,-0.239 0.366,-0.507 0.699,-0.975 z"
   id="path20"
   style="fill:#d21f2a;fill-opacity:1" />
		<path
   fill-rule="evenodd"
   clip-rule="evenodd"
   fill="#D32028"
   d="m 319.768,490.39 c -10e-4,-2.16 -0.022,-4.319 0.012,-6.479 0.01,-0.669 -0.193,-0.935 -0.882,-0.909 -1.118,0.042 -2.239,-0.013 -3.358,0.024 -0.63,0.021 -0.809,-0.223 -0.836,-0.836 -0.112,-2.577 -0.132,-2.576 2.433,-2.579 2.631,-0.003 2.631,-0.003 2.631,-2.642 0,-2.59 0,-2.59 2.46,-3.327 1.702,-0.511 1.701,-0.511 1.697,1.318 -0.002,1.159 0.071,2.325 -0.024,3.477 -0.085,1.021 0.356,1.226 1.244,1.188 1.277,-0.054 2.56,0.01 3.838,-0.027 0.635,-0.019 0.902,0.119 0.918,0.845 0.055,2.57 0.087,2.569 -2.526,2.57 -0.88,0 -1.761,0.035 -2.639,-0.005 -0.638,-0.028 -0.826,0.221 -0.823,0.837 0.023,3.839 -0.053,7.68 0.039,11.516 0.077,3.226 2.412,4.688 5.446,3.48 0.768,-0.307 0.859,-0.115 0.868,0.585 0.037,2.741 0.063,2.837 -2.616,3.139 -4.577,0.517 -8.042,-1.536 -7.89,-6.658 0.054,-1.837 0.009,-3.678 0.008,-5.517 z"
   id="path22"
   style="fill:#d21f2a;fill-opacity:1" />
		<path
   fill-rule="evenodd"
   clip-rule="evenodd"
   fill="#D21F29"
   d="m 218.725,498.208 c 0.066,0.701 0.067,1.429 0.217,2.124 0.239,1.108 -0.09,1.666 -1.254,1.906 -4.614,0.949 -8.845,0.454 -12.258,-3.148 -5.138,-5.423 -4.046,-16.574 4.328,-19.361 2.771,-0.923 5.581,-0.787 8.375,0.001 0.499,0.142 0.759,0.343 0.669,0.909 -0.131,0.826 0.066,1.887 -0.382,2.434 -0.536,0.654 -1.43,-0.183 -2.163,-0.344 -7.1,-1.564 -10.018,4.642 -9.396,9.457 0.536,4.145 2.92,6.65 6.738,7.049 1.458,0.152 2.855,-0.183 4.194,-0.767 0.287,-0.125 0.544,-0.354 0.932,-0.26 z"
   id="path24"
   style="fill:#d21f2a;fill-opacity:1" />
		<path
   fill-rule="evenodd"
   clip-rule="evenodd"
   fill="#D21F2A"
   d="m 407.796,491.379 c -0.122,-8.215 6.145,-13.505 13.695,-12.092 0.078,0.016 0.155,0.036 0.234,0.052 2.998,0.624 2.626,0.108 2.309,3.226 -0.084,0.82 -0.422,0.809 -0.998,0.595 -0.9,-0.335 -1.822,-0.566 -2.787,-0.624 -3.619,-0.216 -6.208,1.536 -7.416,4.962 -0.715,2.028 -0.815,4.078 -0.232,6.125 1.396,4.896 5.81,6.942 10.541,4.86 0.927,-0.408 1.194,-0.304 1.124,0.689 -0.022,0.313 0.061,0.635 0.092,0.953 0.172,1.719 0.191,1.818 -1.483,2.157 -4.467,0.904 -8.611,0.36 -11.929,-3.127 -2.198,-2.31 -3.146,-5.135 -3.15,-7.776 z"
   id="path26"
   style="fill:#d21f2a;fill-opacity:1" />
		<path
   fill-rule="evenodd"
   clip-rule="evenodd"
   fill="#d21f2a"
   d="m 398.116,485.657 c 0.001,5.117 -0.016,10.234 0.018,15.351 0.005,0.854 -0.177,1.181 -1.118,1.173 -3.064,-0.026 -3.062,0.015 -3.062,-3.031 10e-4,-9.634 0.012,-19.269 -0.021,-28.903 -0.003,-0.912 0.18,-1.239 1.17,-1.224 3.012,0.049 3.012,0.003 3.012,2.963 0,4.556 0,9.113 10e-4,13.671 z"
   id="path28" />
		<path
   fill-rule="evenodd"
   clip-rule="evenodd"
   fill="#fefefe"
   d="m 322.605,398.528 c 1.542,3.415 2.986,6.609 4.428,9.804 2.642,5.853 5.27,11.713 7.942,17.552 0.296,0.646 0.319,1.142 0.01,1.778 -1.271,2.613 -2.23,5.394 -4.251,7.59 -3.777,4.103 -8.429,6.083 -14.024,6.163 -10.275,0.147 -20.551,0.313 -30.827,0.195 -4.393,-0.051 -8.8,0.053 -13.178,-0.365 -6.825,-0.651 -11.832,-4.057 -14.781,-10.281 -4.421,-9.334 -8.78,-18.697 -13.157,-28.052 -7.725,-16.512 -15.44,-33.028 -23.163,-49.542 -1.554,-3.324 -3.12,-6.643 -4.677,-9.965 -0.132,-0.281 -0.241,-0.574 -0.355,-0.849 0.259,-0.305 0.557,-0.18 0.809,-0.18 8.239,-0.008 16.478,0.008 24.716,-0.029 0.818,-0.003 1.162,0.273 1.485,0.984 7.94,17.458 15.911,34.903 23.867,52.354 4.351,9.542 8.621,19.123 13.058,28.625 2.213,4.74 6.226,7.444 11.252,8.458 5.889,1.188 11.264,-0.044 15.791,-4.19 1.401,-1.282 2.437,-2.83 3.232,-4.562 3.717,-8.079 7.459,-16.146 11.194,-24.216 0.168,-0.359 0.351,-0.71 0.629,-1.272 z"
   id="path30" />
		
		<path
   fill-rule="evenodd"
   clip-rule="evenodd"
   fill="#fefefe"
   d="m 355.221,384.398 c -2.395,-5.228 -4.666,-10.196 -6.946,-15.16 -1.93,-4.202 -3.858,-8.405 -5.817,-12.595 -0.274,-0.588 -0.324,-1.053 -0.032,-1.67 1.856,-3.93 3.662,-7.884 5.486,-11.829 0.175,-0.379 0.251,-0.758 0.873,-0.756 8.635,0.028 17.269,0.019 26.131,0.019 -6.571,14.01 -13.081,27.889 -19.695,41.991 z"
   id="path34" />
		
		
		
		
		
		
	</g>
</g>
</svg>
